# xmcd
#
# Track frame offsets: 
#        150
#        19116
#        40178
#
# Disc length: 788 seconds
#
# Revision: 0
# Processed by: cddbd v1.5.2PL0 Copyright (c) Steve Scherf et al.
# Submitted via: ExactAudioCopy v0.99pb4
#
DISCID=1a031203
DTITLE=Status Quo - It's Christmas Time (UK Maxi-Single)
DYEAR=2008
DGENRE=Christmas/Holiday
TTITLE0=It's Christmas Time
TTITLE1=Pictures Of Matchstick Man-Ice In The Sun (Live From Oxford)
TTITLE2=It's Christmas Time (Quo-eoke Mix)
EXTD=
EXTT0=
EXTT1=
EXTT2=
PLAYORDER=
